<?xml version="1.0" encoding="utf-8"?>
<!-- Generator: Adobe Illustrator 25.2.3, SVG Export Plug-In . SVG Version: 6.00 Build 0)  -->
<svg version="1.1" id="Calque_1" xmlns="http://www.w3.org/2000/svg" xmlns:xlink="http://www.w3.org/1999/xlink" x="0px" y="0px"
	 viewBox="0 0 394 394" style="enable-background:new 0 0 394 394;" xml:space="preserve">
<style type="text/css">
	.st0{display:none;}
	.st1{display:inline;}
	.st2{fill:#FF0000;}
	.st3{fill:#4600F0;}
	.st4{fill:#F0C800;}
	.st5{fill:#00F096;}
	.st6{fill:none;stroke:#999999;stroke-miterlimit:10;}
	.st7{fill:none;stroke:#000000;stroke-width:2.8346;stroke-miterlimit:10;}
</style>
<g id="Grids" class="st0">
	<g id="Grid_4_" class="st1">
		<g>
			<path class="st2" d="M404.2-85.2v446.4H85.8V-85.2H404.2z M405-86H85v448h320V-86z"/>
		</g>
		<g>
			<path class="st3" d="M468.2-21.2v318.4H21.8V-21.2H468.2z M469-22H21v320h448V-22z"/>
		</g>
		<g>
			<path class="st4" d="M436.2-53.2v382.4H53.8V-53.2H436.2z M437-54H53v384h384V-54z"/>
		</g>
		<g>
			<path class="st5" d="M245-69.2c114.2,0,207.2,93,207.2,207.2s-93,207.2-207.2,207.2S37.8,252.2,37.8,138S130.8-69.2,245-69.2
				 M245-70C130.1-70,37,23.1,37,138s93.1,208,208,208s208-93.1,208-208S359.9-70,245-70z"/>
		</g>
	</g>
</g>
<g id="Icons">
	<g>
		<circle class="st6" cx="165" cy="207" r="144"/>
	</g>
	<g>
		<g>
			<circle class="st7" cx="165" cy="207" r="80"/>
		</g>
		<g>
			<path class="st7" d="M169.7,249.4c2.6,2.6,6.8,2.6,9.4,0l4.7-4.7c5.2-5.2,13.7-5.2,18.9,0s5.2,13.6,0,18.9l-21.8,21.8
				c-48,9.8-93.1-25.6-95.8-73.9l32.8-32.8c5.2-5.2,13.7-5.2,18.9,0s5.2,13.7,0,18.9l-14.1,14.1c-2.6,2.6-2.6,6.8,0,9.4
				s6.8,2.6,9.4,0l18.9-18.9c7.8-7.8,20.5-7.8,28.3,0s7.8,20.5,0,28.3l-9.4,9.4C167.1,242.6,167.1,246.8,169.7,249.4L169.7,249.4z"
				/>
		</g>
		<g>
			<path class="st7" d="M242.3,186.2L231,197.6c-5.2,5.2-13.7,5.2-18.9,0s-5.2-13.7,0-18.9l4.7-4.7c2.6-2.6,2.6-6.8,0-9.4
				s-6.8-2.6-9.4,0l-14.1,14.1c-5.2,5.2-13.7,5.2-18.9,0c-5.1-5.1-5.2-13.6,0-18.9l25-25C219.7,144.3,236.1,163,242.3,186.2
				L242.3,186.2z"/>
		</g>
		<g>
			<circle class="st7" cx="146.1" cy="159.8" r="6.7"/>
		</g>
	</g>
	<g>
		<path d="M229,147c-1,0-2-0.4-2.8-1.2c-1.6-1.6-1.6-4.1,0-5.7l40-40c1.6-1.6,4.1-1.6,5.7,0s1.6,4.1,0,5.7l-40,40
			C231,146.6,230,147,229,147z"/>
	</g>
	<g>
		<path d="M189.1,119.7c-1.6,0-3.1-0.3-4.7-0.9c-4.6-1.9-7.4-6.1-7.4-11.1v-9.4c0-2.5-1.9-3.5-2.5-3.7s-2.6-0.9-4.4,0.9l-18.3,18.3
			c-1.6,1.6-4.1,1.6-5.7,0s-1.6-4.1,0-5.7l18.3-18.3c3.5-3.5,8.5-4.5,13.1-2.6s7.4,6.1,7.4,11.1v9.4c0,2.5,1.9,3.5,2.5,3.7
			s2.6,0.9,4.4-0.9l66.3-66.3c1.6-1.6,4.1-1.6,5.7,0s1.6,4.1,0,5.7l-66.3,66.3C195.2,118.5,192.2,119.7,189.1,119.7z"/>
	</g>
	<g>
		<path d="M261,227c-1,0-2-0.4-2.8-1.2c-1.6-1.6-1.6-4.1,0-5.7l18.3-18.3c1.8-1.8,1.1-3.8,0.9-4.4s-1.2-2.5-3.7-2.5h-9.4
			c-4.9,0-9.2-2.8-11.1-7.4s-0.9-9.6,2.6-13.1l66.3-66.3c1.6-1.6,4.1-1.6,5.7,0s1.6,4.1,0,5.7l-66.3,66.3c-1.8,1.8-1.1,3.8-0.9,4.4
			s1.2,2.5,3.7,2.5h9.4c4.9,0,9.2,2.8,11.1,7.4s0.9,9.6-2.6,13.1l-18.3,18.3C263,226.6,262,227,261,227L261,227z"/>
	</g>
	<g>
		<path d="M165,115h-16c-2.2,0-4-1.8-4-4V95c0-2.2,1.8-4,4-4s4,1.8,4,4v12h12c2.2,0,4,1.8,4,4S167.2,115,165,115z"/>
	</g>
	<g>
		<path d="M245,147h-16c-2.2,0-4-1.8-4-4v-16c0-2.2,1.8-4,4-4s4,1.8,4,4v12h12c2.2,0,4,1.8,4,4S247.2,147,245,147z"/>
	</g>
	<g>
		<path d="M277,227h-16c-2.2,0-4-1.8-4-4v-16c0-2.2,1.8-4,4-4s4,1.8,4,4v12h12c2.2,0,4,1.8,4,4S279.2,227,277,227z"/>
	</g>
	<g>
		<path class="st7" d="M357,255h-80c-8.8,0-16,7.2-16,16v8h-8c-4.4,0-8,3.6-8,8s3.6,8,8,8h8v8c0,8.8,7.2,16,16,16h80
			c8.8,0,16-7.2,16-16v-32C373,262.2,365.8,255,357,255z"/>
	</g>
	<g>
		<path d="M285,307c-6.6,0-12-5.4-12-12v-16c0-6.6,5.4-12,12-12s12,5.4,12,12c0,2.2-1.8,4-4,4s-4-1.8-4-4s-1.8-4-4-4s-4,1.8-4,4v16
			c0,2.2,1.8,4,4,4s4-1.8,4-4s1.8-4,4-4s4,1.8,4,4C297,301.6,291.6,307,285,307z"/>
	</g>
	<g>
		<path d="M317,307c-6.6,0-12-5.4-12-12v-16c0-6.6,5.4-12,12-12s12,5.4,12,12v16C329,301.6,323.6,307,317,307z M317,275
			c-2.2,0-4,1.8-4,4v16c0,2.2,1.8,4,4,4s4-1.8,4-4v-16C321,276.8,319.2,275,317,275z"/>
	</g>
	<g>
		<path d="M357,307h-16c-2.2,0-4-1.8-4-4v-8c0-6.6,5.4-12,12-12c2.2,0,4-1.8,4-4s-1.8-4-4-4h-8c-2.2,0-4-1.8-4-4s1.8-4,4-4h8
			c6.6,0,12,5.4,12,12s-5.4,12-12,12c-2.2,0-4,1.8-4,4v4h12c2.2,0,4,1.8,4,4S359.2,307,357,307z"/>
	</g>
</g>
</svg>
